<svg width="32" height="32" viewBox="0 0 32 32" fill="none" xmlns="http://www.w3.org/2000/svg">
<path d="M0.499723 0H1.99999V0.477867C4.08852 0.945067 4.38879 2.88373 4.50666 3.62453C4.56266 3.97493 4.67626 4.66027 4.81706 5.49973H30.9397C31.9733 5.49973 32.0891 6.4656 31.9541 7L28.8896 20.5291C28.7552 21.0635 28.1893 21.4997 27.6347 21.4997H4.73119C4.17972 21.4997 3.73012 21.9483 3.73012 22.4997C3.73012 23.0512 4.17972 23.4997 4.73119 23.4997H29.7307C29.9959 23.4997 30.2502 23.6051 30.4378 23.7926C30.6253 23.9802 30.7307 24.2345 30.7307 24.4997C30.7307 24.765 30.6253 25.0193 30.4378 25.2068C30.2502 25.3944 29.9959 25.4997 29.7307 25.4997H28.4347C29.0604 25.8452 29.5821 26.3522 29.9453 26.9678C30.3085 27.5834 30.5 28.2852 30.4997 29H29.4997C29.4997 30.656 28.1557 32 26.4997 32C24.8437 32 23.4997 30.656 23.4997 29H22.4997C22.4996 28.2852 22.6912 27.5834 23.0545 26.9678C23.4178 26.3521 23.9395 25.8452 24.5653 25.4997H10.4352C11.061 25.8452 11.5827 26.3521 11.946 26.9678C12.3093 27.5834 12.5009 28.2852 12.5008 29H11.5008C11.486 29.786 11.1633 30.5348 10.6022 31.0854C10.0411 31.636 9.28639 31.9445 8.50026 31.9445C7.71412 31.9445 6.95937 31.636 6.39828 31.0854C5.83718 30.5348 5.51454 29.786 5.49972 29H4.49972C4.49966 28.2852 4.69119 27.5835 5.05438 26.9679C5.41757 26.3523 5.93914 25.8453 6.56479 25.4997H4.73012C3.9346 25.4993 3.17179 25.1831 2.60927 24.6206C2.04675 24.0581 1.73055 23.2953 1.73012 22.4997C1.73019 22.1057 1.80787 21.7155 1.95873 21.3515C2.10959 20.9875 2.33066 20.6568 2.60934 20.3782C2.88801 20.0996 3.21883 19.8787 3.58289 19.7279C3.94696 19.5772 4.33715 19.4997 4.73119 19.4997H5.10292L3.82399 11.5477C3.46772 9.44747 2.69972 4.9104 2.51946 3.78187C2.42879 3.21173 2.34079 2.8112 1.99999 2.58667V2.99947H0.499723C0.367407 2.99905 0.240623 2.94633 0.147011 2.85282C0.0533994 2.75931 0.000552079 2.63258 -1.02997e-05 2.50027V0.500267C0.000270942 0.367766 0.0529948 0.240766 0.146637 0.147024C0.240279 0.0532817 0.367223 0.000422576 0.499723 0V0ZM26.4997 30.5003C26.8975 30.4998 27.2788 30.3416 27.5601 30.0604C27.8414 29.7791 27.9996 29.3978 28 29H25C25.0004 29.3977 25.1585 29.7789 25.4397 30.0602C25.7208 30.3414 26.102 30.4997 26.4997 30.5003V30.5003ZM8.49972 30.5003C8.89758 30.5 9.27907 30.3418 9.56045 30.0606C9.84183 29.7793 10.0001 29.3979 10.0005 29H6.99946C7.00016 29.3977 7.15845 29.7789 7.43965 30.0601C7.72085 30.3413 8.10204 30.4996 8.49972 30.5003V30.5003ZM9.73012 7.9968C9.71252 7.86125 9.64685 7.73653 9.54506 7.6453C9.44327 7.55408 9.31211 7.50243 9.17546 7.49973H6.00906C5.73386 7.49973 5.54239 7.7216 5.58559 7.99413L5.89919 10.0053C5.94079 10.2773 6.20159 10.4997 6.47732 10.4997H9.49759C9.56119 10.5014 9.6244 10.4893 9.68287 10.4642C9.74134 10.4392 9.79369 10.4017 9.83631 10.3545C9.87894 10.3072 9.91082 10.2513 9.92978 10.1906C9.94873 10.1299 9.95431 10.0658 9.94612 10.0027L9.73012 7.9968V7.9968ZM10.2683 12.9968C10.2503 12.8614 10.1846 12.7368 10.0829 12.6457C9.98113 12.5545 9.85015 12.5028 9.71359 12.4997H6.78932C6.51359 12.4997 6.32266 12.7216 6.36426 12.9941L6.60052 14.5056C6.64266 14.7776 6.90292 15 7.17866 15H9.98239C10.0459 15.0015 10.1091 14.9893 10.1674 14.9641C10.2258 14.939 10.2781 14.9016 10.3207 14.8544C10.3633 14.8072 10.3952 14.7513 10.4142 14.6907C10.4332 14.63 10.4389 14.566 10.4309 14.5029L10.2683 12.9968V12.9968ZM29.4048 10.0144L29.9115 7.98507C29.9776 7.71733 29.8059 7.49973 29.5301 7.49973H25.7653C25.4891 7.49973 25.24 7.7232 25.2107 7.9968L24.9952 10.0032C24.9872 10.0662 24.9929 10.1302 25.0119 10.1908C25.0309 10.2514 25.0627 10.3072 25.1052 10.3544C25.1478 10.4016 25.2 10.4391 25.2583 10.4642C25.3166 10.4894 25.3797 10.5017 25.4432 10.5003H28.7824C29.0576 10.5003 29.3381 10.2811 29.4048 10.0144V10.0144ZM27.6603 15C27.9355 15 28.216 14.7813 28.2821 14.5147L28.664 12.9856C28.7307 12.7179 28.56 12.5003 28.2843 12.5003H25.2288C24.9531 12.5003 24.7035 12.7237 24.6741 12.9973L24.512 14.5035C24.5039 14.5665 24.5095 14.6305 24.5285 14.6912C24.5474 14.7518 24.5793 14.8077 24.6218 14.8549C24.6644 14.9021 24.7166 14.9395 24.775 14.9647C24.8334 14.9898 24.8965 15.002 24.96 15.0005H27.6603V15ZM24.4768 19.5003H26.5381C26.8149 19.5003 27.0939 19.2816 27.1605 19.0149L27.5424 17.4859C27.6085 17.2181 27.4379 17.0005 27.1616 17.0005H24.7456C24.4699 17.0005 24.2203 17.224 24.1899 17.4976L24.0288 19.0037C24.0207 19.0667 24.0263 19.1308 24.0453 19.1914C24.0642 19.252 24.0961 19.3078 24.1387 19.355C24.1812 19.4021 24.2335 19.4395 24.2918 19.4646C24.3502 19.4897 24.4133 19.5019 24.4768 19.5003V19.5003ZM18.3477 19C18.3483 19.1327 18.4013 19.2598 18.4952 19.3535C18.5892 19.4472 18.7164 19.5 18.8491 19.5003H21.4576C21.5942 19.4974 21.7252 19.4457 21.8269 19.3545C21.9285 19.2633 21.9941 19.1387 22.0117 19.0032L22.1739 17.4971C22.1821 17.434 22.1766 17.37 22.1578 17.3093C22.1389 17.2486 22.1071 17.1927 22.0646 17.1455C22.0221 17.0982 21.9698 17.0608 21.9114 17.0357C21.8531 17.0105 21.7899 16.9984 21.7264 17H18.8491C18.7163 17 18.5889 17.0527 18.4949 17.1465C18.4009 17.2402 18.348 17.3675 18.3477 17.5003V19V19ZM18.3477 14.5003C18.3483 14.633 18.4013 14.76 18.4952 14.8538C18.5892 14.9475 18.7164 15.0003 18.8491 15.0005H21.9413C22.2165 15.0005 22.4651 14.7771 22.496 14.5035L22.6571 12.9973C22.6652 12.9343 22.6597 12.8703 22.6408 12.8097C22.6219 12.749 22.5901 12.6931 22.5476 12.6459C22.5051 12.5987 22.4529 12.5613 22.3945 12.5361C22.3362 12.511 22.2731 12.4987 22.2096 12.5003H18.8491C18.7163 12.5003 18.5889 12.5529 18.4949 12.6467C18.4009 12.7405 18.348 12.8678 18.3477 13.0005V14.5003V14.5003ZM18.3477 10C18.3483 10.1327 18.4013 10.2598 18.4952 10.3535C18.5892 10.4472 18.7164 10.5 18.8491 10.5003H22.4235C22.5601 10.4976 22.6913 10.4459 22.7931 10.3547C22.8948 10.2635 22.9605 10.1387 22.9781 10.0032L23.1936 7.9968C23.2017 7.93377 23.196 7.86973 23.1771 7.80908C23.1581 7.74843 23.1263 7.69259 23.0837 7.64538C23.0412 7.59818 22.989 7.56073 22.9306 7.53559C22.8722 7.51045 22.8091 7.49822 22.7456 7.49973H18.8485C18.7157 7.49973 18.5884 7.55241 18.4944 7.64619C18.4004 7.73998 18.3475 7.86722 18.3472 8V10H18.3477ZM12.9296 19.0032C12.9473 19.1387 13.013 19.2634 13.1148 19.3546C13.2165 19.4458 13.3476 19.4975 13.4843 19.5003H15.8416C15.9742 19.5 16.1014 19.4472 16.1952 19.3535C16.289 19.2597 16.342 19.1326 16.3424 19V17.4997C16.3421 17.367 16.2892 17.2399 16.1954 17.1461C16.1015 17.0523 15.9743 16.9996 15.8416 16.9995H13.2155C12.9403 16.9995 12.7376 17.2229 12.7675 17.4965L12.9296 19.0032ZM12.4464 14.5029C12.4641 14.6384 12.5298 14.7631 12.6316 14.8543C12.7333 14.9455 12.8644 14.9972 13.0011 15H15.8416C15.9742 14.9997 16.1014 14.9469 16.1952 14.8532C16.289 14.7595 16.342 14.6324 16.3424 14.4997V12.9995C16.3421 12.8668 16.2892 12.7396 16.1954 12.6458C16.1015 12.5521 15.9743 12.4993 15.8416 12.4992H12.7323C12.4565 12.4992 12.2544 12.7227 12.2848 12.9963L12.4464 14.5029ZM11.9632 10.0032C11.9809 10.1387 12.0466 10.2634 12.1484 10.3546C12.2501 10.4458 12.3812 10.4975 12.5179 10.5003H15.8416C15.9742 10.5 16.1014 10.4472 16.1952 10.3535C16.289 10.2597 16.342 10.1326 16.3424 10V8C16.3421 7.86732 16.2892 7.74015 16.1954 7.64638C16.1015 7.55261 15.9743 7.49987 15.8416 7.49973H12.1952C11.9195 7.49973 11.7173 7.7232 11.7467 7.9968L11.9632 10.0032V10.0032ZM8.10612 19.5003V19.4965L8.11039 19.5003H10.4656C10.4811 19.5003 10.4944 19.4928 10.5099 19.4907C10.5125 19.4725 10.5125 19.4544 10.5157 19.4352L10.5392 19.4843C10.5327 19.486 10.5261 19.4874 10.5195 19.4885C10.7653 19.4603 10.9413 19.2571 10.9131 19.0032L10.752 17.4971C10.7341 17.3617 10.6683 17.2371 10.5666 17.146C10.4649 17.0548 10.3339 17.003 10.1973 17H7.49012C7.21439 17 7.02452 17.2219 7.06612 17.4944L7.30239 19.0059C7.34346 19.2779 7.60372 19.5003 7.87945 19.5003H8.10612" fill="#4F2D23"/>
</svg>
