<svg width="33" height="32" viewBox="0 0 33 32" fill="none" xmlns="http://www.w3.org/2000/svg">
<path fill-rule="evenodd" clip-rule="evenodd" d="M32.0225 27.4865C31.6669 28.3731 31.2383 29.0356 30.5514 29.7175C29.8646 30.4044 29.2069 30.8331 28.3204 31.1887C26.1167 32.0643 21.3081 32.0175 18.1986 31.9872L18.1982 31.9872C17.6922 31.9823 17.2313 31.9778 16.8339 31.9778C16.4351 31.9778 15.9724 31.9823 15.4643 31.9873H15.4643C12.3536 32.0176 7.54505 32.0645 5.3425 31.1935C4.45592 30.8379 3.79343 30.4093 3.11145 29.7224C2.4246 29.0356 1.99592 28.3779 1.64032 27.4914C0.769362 25.2847 0.816239 20.4792 0.846574 17.3695C0.85153 16.8615 0.856043 16.3988 0.856043 16C0.856043 15.6013 0.85153 15.1385 0.846576 14.6305C0.81624 11.5198 0.769347 6.71119 1.64032 4.50864C1.99592 3.62206 2.4246 2.95957 3.11145 2.27759C3.7983 1.59561 4.45592 1.16206 5.3425 0.806458C7.54506 -0.0645152 12.3536 -0.0176218 15.4643 0.0127136C15.9724 0.0176682 16.4351 0.0221811 16.8339 0.0221811C17.2326 0.0221811 17.6954 0.0176682 18.2034 0.0127136C21.3141 -0.0176218 26.1227 -0.0645152 28.3252 0.806458C29.2118 1.16206 29.8743 1.59074 30.5563 2.27759C31.2431 2.96444 31.6718 3.62206 32.0274 4.50864C32.8984 6.71119 32.8515 11.5198 32.8212 14.6304C32.8162 15.1385 32.8117 15.6013 32.8117 16C32.8117 16.3974 32.8162 16.8584 32.8211 17.3643L32.8211 17.3647V17.3647C32.8513 20.4743 32.8981 25.2829 32.0225 27.4865ZM28.0624 6.84858C28.0624 8.0261 27.1078 8.98067 25.9303 8.98067C24.7528 8.98067 23.7982 8.0261 23.7982 6.84858C23.7982 5.67106 24.7528 4.71649 25.9303 4.71649C27.1078 4.71649 28.0624 5.67106 28.0624 6.84858ZM22.6269 16C22.6269 19.1965 20.0356 21.7878 16.8391 21.7878C13.6426 21.7878 11.0513 19.1965 11.0513 16C11.0513 12.8035 13.6426 10.2122 16.8391 10.2122C20.0356 10.2122 22.6269 12.8035 22.6269 16ZM24.6269 16C24.6269 20.3011 21.1402 23.7878 16.8391 23.7878C12.538 23.7878 9.05127 20.3011 9.05127 16C9.05127 11.6989 12.538 8.21216 16.8391 8.21216C21.1402 8.21216 24.6269 11.6989 24.6269 16Z" fill="#4F2D23"/>
</svg>
