<svg width="32" height="32" viewBox="0 0 32 32" fill="none" xmlns="http://www.w3.org/2000/svg">
<path d="M11.2345 4.00568C12.5946 3.95081 13.9389 4.29327 15.1245 4.99048C16.3094 5.68719 17.2885 6.7099 17.9668 7.94269C18.6448 9.17511 19 10.5765 19 12C19 12.5523 18.5523 13 18 13C17.4477 13 17 12.5523 17 12C17 10.9069 16.7269 9.83801 16.2145 8.9068C15.7023 7.97589 14.9728 7.22144 14.1108 6.71448C13.2495 6.20807 12.2842 5.96497 11.3152 6.00409C10.3461 6.04321 9.39844 6.36365 8.57202 6.94C8.11902 7.25586 7.49567 7.14471 7.17975 6.69171C6.86383 6.23871 6.97498 5.61536 7.42798 5.2995C8.55951 4.51044 9.87445 4.06061 11.2345 4.00568Z" fill="#4F2D23"/>
<path fill-rule="evenodd" clip-rule="evenodd" d="M20.9848 18.0049C22.256 16.1549 23 13.9143 23 11.5C23 5.14874 17.8513 0 11.5 0C5.14874 0 0 5.14874 0 11.5C0 17.8513 5.14874 23 11.5 23C13.5339 23 15.4445 22.472 17.1021 21.5456L17.112 21.5551L28.3088 31.8906C28.7029 32.2544 29.8173 31.688 30.798 30.6257C31.7786 29.5634 32.254 28.4073 31.86 28.0436L20.9848 18.0049ZM11.5 21C16.7467 21 21 16.7467 21 11.5C21 6.2533 16.7467 2 11.5 2C6.2533 2 2 6.2533 2 11.5C2 16.7467 6.2533 21 11.5 21ZM29.3284 29.2692C29.1703 29.4404 29.0181 29.5825 28.8807 29.6967L19.2532 20.8098C19.3561 20.6638 19.4856 20.5007 19.6436 20.3294C19.7501 20.2141 19.8539 20.112 19.9523 20.0228C20 19.9795 20.0464 19.9392 20.0912 19.9019L29.7188 28.7888C29.6159 28.9348 29.4864 29.098 29.3284 29.2692Z" fill="#4F2D23"/>
</svg>
