<svg width="40" height="32" viewBox="0 0 40 32" fill="none" xmlns="http://www.w3.org/2000/svg">
<path d="M33.8568 3.07459C33.9859 3.22299 34.1899 3.28194 34.3783 3.22524C35.9891 2.74017 37.5303 2.05373 38.9658 1.18351C38.2977 3.07263 37.2083 4.79173 35.7734 6.20685C35.6545 6.32404 35.602 6.4928 35.6334 6.65673C35.7207 7.11388 35.7655 7.57812 35.7671 8.04354C35.767 18.1226 30.9562 25.3037 24.2175 28.8905C17.9766 32.2122 10.0389 32.4738 2.64435 29.0331C6.46762 28.8135 10.1746 27.5638 13.3643 25.3986C13.5145 25.2967 13.5976 25.1213 13.5815 24.9405C13.5653 24.7596 13.4524 24.6018 13.2865 24.528C9.35394 22.7802 6.87124 20.501 5.34145 18.0856C3.80965 15.6669 3.21419 13.0812 3.10574 10.6954C2.99719 8.30732 3.37729 6.12982 3.78695 4.54579C3.96839 3.84422 4.15499 3.26153 4.30593 2.83155C6.08394 5.12447 8.35363 6.99521 10.9523 8.3032C13.8263 9.74978 17.0134 10.4631 20.2299 10.3797C20.5009 10.3727 20.7169 10.151 20.7169 9.8799V8.09654H20.717L20.7169 8.08984C20.6963 6.55573 21.1474 5.05232 22.0091 3.78294C22.8708 2.51355 24.1016 1.53944 25.535 0.992346C26.9684 0.445253 28.5352 0.351576 30.0236 0.723984C31.5119 1.09639 32.85 1.91692 33.8568 3.07459Z" fill="#4F2D23" stroke="#4F2D23" stroke-linecap="round" stroke-linejoin="round"/>
</svg>
